<svg xmlns="http://www.w3.org/2000/svg" viewBox="0 0 809.94 582.55"><defs><style>.a,.r,.w{fill:none;}.a{stroke:#dfe6e5;stroke-width:3.02px;stroke-dasharray:4.52 9.05;}.a,.d,.s,.v,.w{stroke-linecap:round;}.a,.d,.p,.r,.s,.v,.w{stroke-linejoin:round;}.b{fill:#d61f36;}.c{fill:#ff9c81;}.d,.e,.v,.y{fill:#fff;}.aa,.d,.p,.r,.s,.v,.w,.y,.z{stroke:#25395a;}.d{stroke-width:1.99px;}.f{fill:#25395a;}.g{fill:#e8eaeb;}.h{opacity:0.15;}.i{fill:#00324a;}.j{opacity:0.12;}.k{fill:#e6e7e8;}.l{opacity:0.5;}.m{opacity:0.08;}.n{fill:#ed2229;}.o{opacity:0.57;}.p{fill:#6cc777;stroke-width:3.47px;}.q{fill:#8fd96e;}.aa,.r,.s,.v,.w{stroke-width:3px;}.s,.t{fill:#4ac777;}.u{fill:#90eb6e;}.x{fill:#d72135;}.aa,.y,.z{stroke-miterlimit:10;}.y,.z{stroke-width:2.78px;}.aa,.z{fill:#ffc000;}</style></defs><title>Ресурс 2</title><path class="a" d="M1.51,581V151.71a29.76,29.76,0,0,1,29.75-29.77h0A29.75,29.75,0,0,1,61,151.68v0h0v88.86a22.22,22.22,0,0,0,22.21,22.22h4.2a22.22,22.22,0,0,0,22.22-22.22h0v-94.3a24.3,24.3,0,0,1,24.28-24.32h0a24.31,24.31,0,0,1,24.32,24.3v2.11a22.21,22.21,0,0,0,22.16,22.26H660.86a23.89,23.89,0,0,0,23.89-23.89h0V119a23.9,23.9,0,0,1,23.89-23.89h0A23.89,23.89,0,0,1,732.53,119h0v26a23.9,23.9,0,0,0,23.9,23.89H759A23.9,23.9,0,0,0,782.86,145V119a23.9,23.9,0,0,1,23.89-23.89h1.68"/><path class="b" d="M161.22,194.34a5.7,5.7,0,1,1,5.7-5.7h0A5.72,5.72,0,0,1,161.22,194.34Z"/><rect class="c" x="591.09" y="54.93" width="3.34" height="8.27" transform="translate(100.19 394.06) rotate(-39.91)"/><rect class="c" x="601.83" y="67.77" width="3.34" height="8.27" transform="translate(94.45 403.95) rotate(-39.91)"/><rect class="c" x="587.51" y="69.2" width="8.27" height="3.34" transform="translate(92.36 396.1) rotate(-39.91)"/><rect class="c" x="600.34" y="58.43" width="8.27" height="3.34" transform="translate(102.25 401.82) rotate(-39.91)"/><rect class="c" x="128.35" y="355.07" width="3.34" height="8.27" transform="translate(-200.17 167.09) rotate(-39.91)"/><rect class="c" x="139.1" y="367.93" width="3.34" height="8.27" transform="translate(-205.92 176.99) rotate(-39.91)"/><rect class="c" x="124.76" y="369.32" width="8.27" height="3.34" transform="translate(-208 169.12) rotate(-39.91)"/><rect class="c" x="137.6" y="358.58" width="8.27" height="3.34" transform="translate(-198.11 174.86) rotate(-39.91)"/><path class="a" d="M623.91,437.36s4.27-78.72,56-80.66,21,56.09,0,31,18.2-67.65,77-72.9"/><path class="d" d="M757.25,338.36l-.14-.3L747.33,313l-15.75,7.25a.54.54,0,0,1-.58-.08,1,1,0,0,1-.28-.17.81.81,0,0,1-.35-1l12-20.46L716.29,282.7A.59.59,0,0,1,716,282a.6.6,0,0,1,.61-.39l87.07,7.92a.59.59,0,0,1,.53.61.55.55,0,0,1-.07.31.59.59,0,0,1-.17.42l-46,47.33-.22.2Zm-14.63-39.54L731,318.73h0l13.39-12,.65-.37,53.09-16.49L743,298.5a.59.59,0,0,0-.4.32Zm14.65,39.54-.14-.3L747.35,313l-15.75,7.25a.54.54,0,0,1-.58-.08,1.22,1.22,0,0,1-.29-.17c-.16-.14-.59-.5-.34-1l12-20.46L716.31,282.7a.58.58,0,0,1-.25-.68.6.6,0,0,1,.61-.39l87.07,7.92a.59.59,0,0,1,.53.61.64.64,0,0,1-.07.31.59.59,0,0,1-.17.42l-46,47.33-.22.2Z"/><rect class="e" x="288.46" y="27.32" width="258.11" height="516.21" rx="30.47" ry="30.47"/><path class="f" d="M520,27H315a28.88,28.88,0,0,0-28.85,28.85V519A28.89,28.89,0,0,0,315,547.85H520a28.9,28.9,0,0,0,28.82-28.8V55.85A28.88,28.88,0,0,0,520,27Zm24.24,492A24.27,24.27,0,0,1,520,543.26H315a24.29,24.29,0,0,1-24.21-24.21V55.85A24.28,24.28,0,0,1,315,31.63h205a24.28,24.28,0,0,1,24.21,24.22Z"/><path class="f" d="M441.8,64.69a2.32,2.32,0,0,0,0-4.63H391.73a2.32,2.32,0,0,0,0,4.63Z"/><path class="f" d="M432,516.07A14.16,14.16,0,0,0,417.86,502h-.7A14.15,14.15,0,0,0,403,516.07v.66a14.15,14.15,0,0,0,14.13,14.13h.7A14.15,14.15,0,0,0,432,516.73Zm-14.49,11.16h0a10.83,10.83,0,1,1,10.82-10.84h0a10.85,10.85,0,0,1-10.82,10.83Z"/><path class="f" d="M286.42,84.94V489.79H548.86V84.94ZM544.28,485.15H291.05V89.57H544.28Z"/><rect class="g" x="317.44" y="326.08" width="191.69" height="57.45" rx="15.11" ry="15.11"/><rect class="g" x="317.44" y="176.85" width="191.69" height="122.85" rx="15.11" ry="15.11"/><rect class="g" x="317.44" y="407" width="191.69" height="57.45" rx="15.11" ry="15.11"/><rect class="e" x="473.51" y="393.22" width="75.54" height="82.95" rx="31.57" ry="31.57"/><path class="f" d="M505.08,478.88h9a47.58,47.58,0,0,0,11.66-1,34.81,34.81,0,0,0,24.08-22c2.55-7.18,1.92-15,1.92-22.52V425a34.33,34.33,0,0,0-30.21-34.14,82,82,0,0,0-10.16-.27,83.16,83.16,0,0,0-10.23.25,34.34,34.34,0,0,0-30.37,34.09v8.21c0,7.45-.66,15.29,1.81,22.45a34.26,34.26,0,0,0,32.48,23.34c3.48,0,3.48-5.4,0-5.42a26.41,26.41,0,0,1-7.56-1,33.32,33.32,0,0,1-3.53-1.2,28.81,28.81,0,0,1-17.77-25.8c0-2.33,0-4.66,0-7V424.84a21.24,21.24,0,0,1,.1-2.52,22.19,22.19,0,0,1,.53-3.55,32,32,0,0,1,1.08-3.86,23.14,23.14,0,0,1,1.33-3.07,32.31,32.31,0,0,1,1.92-3.33,21.58,21.58,0,0,1,2.11-2.73A33.61,33.61,0,0,1,486,403c.46-.4,1-.81,1.41-1.19-.26.21.41-.29.49-.35.26-.2.53-.39.81-.58a30.25,30.25,0,0,1,3.34-2c.55-.28,1.11-.56,1.69-.81.3-.13.9-.37,1.5-.58a31.53,31.53,0,0,1,11.36-1.6h11a15.26,15.26,0,0,1,1.93.08l.89.07h.78a31.26,31.26,0,0,1,7.28,2A29.27,29.27,0,0,1,540.16,407c.19.24,0,.06,0,0q.17.21.33.45c.12.15.34.46.5.7.38.55.75,1.11,1.09,1.69a28.8,28.8,0,0,1,1.8,3.44c.2.43.31.71.55,1.36s.45,1.28.64,1.93a31.53,31.53,0,0,1,.87,3.85c.07.45.12.8.18,1.5s.09,1.42.11,2.12v15.29c0,2.52.11,5.06-.08,7.57a29,29,0,0,1-15.92,23.39,21.12,21.12,0,0,1-3.21,1.38,32.31,32.31,0,0,1-3.85,1.07,27.6,27.6,0,0,1-6,.59H505C501.58,473.5,501.58,478.88,505.08,478.88Z"/><rect class="e" x="499.34" y="362.89" width="23.87" height="42.88" rx="11.93" ry="11.93"/><path class="f" d="M511.28,365.61a9.35,9.35,0,0,1,8.79,6.45,7.91,7.91,0,0,1,.43,2.77v13.89a57.91,57.91,0,0,1-.06,6.32c0-.47-.08.46-.08.44-.06.29-.13.57-.2.85a7.84,7.84,0,0,1-.44,1.23,8.58,8.58,0,0,1-1.84,2.7,7.33,7.33,0,0,1-2.12,1.63,9,9,0,0,1-1.17.57,11.7,11.7,0,0,1-1.93.52c-.9.16.48,0-.45,0h-1.5s-1-.09-.46,0a9.2,9.2,0,0,1-7.26-5.17,9.62,9.62,0,0,1-.9-4.16v-12.5a67.38,67.38,0,0,1,.06-7.52c-.06.48.08-.46.08-.44.07-.37.17-.75.28-1.13.06-.18.12-.36.19-.54s.13-.35,0-.15a4,4,0,0,1,.24-.51,8.33,8.33,0,0,1,2.12-2.83,9.37,9.37,0,0,1,6.21-2.42c3.48,0,3.49-5.47,0-5.42a14.83,14.83,0,0,0-13.48,9c-1.26,3-1.15,6-1.15,9.17v10.9c0,2.75-.22,5.66.5,8.34a14.65,14.65,0,0,0,26.72,3.71c1.85-3.09,2.06-6.42,2.06-9.89V380.64a63.5,63.5,0,0,0-.09-7.3,14.86,14.86,0,0,0-10.49-12.57,14.33,14.33,0,0,0-4.06-.58C507.78,360.19,507.78,365.61,511.28,365.61Z"/><g class="h"><path class="i" d="M523.16,394.86v-20a12,12,0,0,0-11.93-11.94h0a12,12,0,0,0-11.94,11.94v20Z"/><path class="i" d="M496.68,394.86h5.44a9.66,9.66,0,0,1-.07-1.2V381.15q-.18-3.69,0-7.38l.09-.58c.08-.37.17-.75.29-1.13.06-.18.11-.36.18-.54a2.37,2.37,0,0,0,.1-.26l.19-.4A8.33,8.33,0,0,1,505,368a9.19,9.19,0,0,1,13,.55l0,0a9,9,0,0,1,2,3.46,7.91,7.91,0,0,1,.43,2.77v13.89c0,2,.16,4.11,0,6.14h5.34c.1-1.13.13-2.28.13-3.44V380.64a65.86,65.86,0,0,0-.1-7.3,14.88,14.88,0,0,0-10.43-12.57,14.33,14.33,0,0,0-4.06-.58,14.83,14.83,0,0,0-13.48,9c-1.26,3-1.15,6-1.15,9.17v10.9A47.57,47.57,0,0,0,496.68,394.86Z"/></g><path class="e" d="M574.64,321.13c8-25-3.85-50.66-22.46-67.78A63.85,63.85,0,0,0,545.6,248a41,41,0,0,0-5-3.12c-8.2-4.41-17.42-5.62-26.65-5.58a70,70,0,0,0-7.38.41,130.26,130.26,0,0,0-21.39,4.63c-2.39.74-4.75,1.56-7,2.44s-4.52,1.8-6.66,2.77a63.39,63.39,0,0,0-6.9,4.15,95,95,0,0,0-17.68,16,30.68,30.68,0,0,0-3.41,6.2c-.28,2.54-.45,5.08-.56,7.61-.74,17.75,2.1,35.24,2.29,53,0,2.46-.08,4.86-.06,7.21.18,25.8,6.74,44.4,64,45h1.66c62.8-.62,64.58-23,63.88-52.7,0-2.29-.13-4.62-.17-7C574.51,326.41,574.52,323.78,574.64,321.13Z"/><g class="j"><path class="i" d="M587.07,294.09c-.32-3-1.68-6-2.78-8.76a91.59,91.59,0,0,0-4-8.66,81.23,81.23,0,0,0-23.43-27.17,78.17,78.17,0,0,0-35.64-14.36,87.28,87.28,0,0,0-12-.84c-3.49,0-3.5,5.43,0,5.42a77.71,77.71,0,0,1,21.91,3.06,70.07,70.07,0,0,1,15.73,6.62,74.19,74.19,0,0,1,24.26,22.5,77.51,77.51,0,0,1,4.45,7.37,79.65,79.65,0,0,1,3.47,7.36c.53,1.36,1,2.73,1.52,4.12.24.69.47,1.39.69,2.09.11.35.22.7.32,1a4,4,0,0,0,.12.52,2.2,2.2,0,0,1,0,.52.08.08,0,0,1,0,.07v.11a1.73,1.73,0,0,1-.14.42l-.17.31v.07h0l-.27.26-.33.23-.32.17-.41.16a2.4,2.4,0,0,0-.58.12h-1l-.38-.1-.28-.14-.26-.16a2.27,2.27,0,0,0-.31-.31,2.13,2.13,0,0,1-.26-.4,1.24,1.24,0,0,1-.1-.2c-.13-.38-.24-.77-.36-1.14-.49-1.56-1-3.12-1.61-4.65a73.28,73.28,0,0,0-9.35-17.33,67.33,67.33,0,0,0-31.26-23.35A73.61,73.61,0,0,0,496.09,246a68.36,68.36,0,0,0-32,15.11,71.09,71.09,0,0,0-20,28.23c-.53,1.36-1,2.74-1.48,4.12-.22.65-.41,1.28-.6,1.93a.56.56,0,0,1-.07.22l-.06.08c-.09.14-.38.54-.3.48a2.27,2.27,0,0,0-.26.28h0l-.11,0-.36.2a2.79,2.79,0,0,0-.47.14h-1.07l-.46-.1-.54-.19c.67.24.06,0-.11-.09l-.4-.25c.23.14-.11-.15-.29-.3h0l-.27-.47a1.82,1.82,0,0,1-.07-.25.79.79,0,0,1,0-.22h0a2.41,2.41,0,0,0,0-.38,4.92,4.92,0,0,1,.09-.54c.22-.82.5-1.64.76-2.45.51-1.55,1.06-3.09,1.66-4.6a70.49,70.49,0,0,1,30.85-36.8c3-1.76.27-6.45-2.74-4.68A77.35,77.35,0,0,0,438.63,276a89.55,89.55,0,0,0-4.32,9.52c-.65,1.61-1.23,3.26-1.77,4.93a13.92,13.92,0,0,0-1,4.37c.08,5.19,5.63,8.62,10.44,7.17a7.92,7.92,0,0,0,5.26-5.48,76.17,76.17,0,0,1,3-8.13,68,68,0,0,1,9-14.8,62.78,62.78,0,0,1,27.85-19.73,67.77,67.77,0,0,1,38-1.92,62.47,62.47,0,0,1,33,19.77,66.17,66.17,0,0,1,10.4,16.69c1.27,2.89,2,6,3.22,8.88a7.6,7.6,0,0,0,5.61,4.82C582.22,303,587.64,299.5,587.07,294.09Zm-147.69,2.82Z"/></g><path class="f" d="M577.26,321.85A59.2,59.2,0,0,0,576,283.38a83.76,83.76,0,0,0-22.15-32.22,52.83,52.83,0,0,0-19.26-11.79,66.2,66.2,0,0,0-21.81-2.77,98.54,98.54,0,0,0-23.25,3.73c-3.68,1-7.31,2.06-10.9,3.38A72.73,72.73,0,0,0,468,248.34a86,86,0,0,0-17.8,13.86,43.91,43.91,0,0,0-7,8.29,14.86,14.86,0,0,0-2.38,5.41c-.22,1.85-.37,3.94-.48,5.93-.87,15.84,1.3,31.62,2,47.44.42,9.38-.37,18.79,1.18,28.11a36.29,36.29,0,0,0,7,16.59c4.39,5.57,10.68,9.18,17.24,11.63,9.89,3.67,20.68,4.87,31.14,5.45,3.42.18,6.84.28,10.26.32l-2.72-2.71h0a2.76,2.76,0,0,0,2.72,2.71h1.71a2.75,2.75,0,0,0,2.72-2.71h0l-2.72,2.71c11-.12,22.06-.77,32.75-3.23,7-1.6,14-4,19.79-8.36A32.23,32.23,0,0,0,574,366.21a50.6,50.6,0,0,0,3.3-16.26c.49-7.81-.08-15.62-.09-23.43,0-1.8,0-3.59.12-5.39a2.71,2.71,0,0,0-5.42,0c-.42,8.75.41,17.52.1,26.27,0,1.4-.14,2.81-.26,4.22a14.86,14.86,0,0,1-.19,1.92,8,8,0,0,1-.11,1c-.07.59.1-.67,0-.08l-.09.63a42.34,42.34,0,0,1-1.8,7.55c-.19.57-.41,1.14-.63,1.7-.06.17-.3.67,0-.09a3.65,3.65,0,0,1-.18.41c-.13.32-.29.64-.43,1a28.28,28.28,0,0,1-1.86,3.26,15.92,15.92,0,0,1-1,1.37c-.11.14-.47.56,0-.07l-.29.36c-.23.28-.46.56-.7.83a28.77,28.77,0,0,1-2.83,2.8l-.77.64-.39.3c.61-.48.14-.1,0,0-.61.45-1.22.88-1.85,1.3a43.2,43.2,0,0,1-4,2.28c-.72.35-1.44.67-2.18,1s.54-.21-.11,0l-.58.24-1.4.53c-1.79.66-3.61,1.21-5.45,1.72-2.31.61-4.66,1.12-7,1.56-2.79.51-5,.81-7.63,1.1A193.55,193.55,0,0,1,510.72,386a2.76,2.76,0,0,0-2.71,2.72h0l2.71-2.71H509l2.71,2.71h0A2.76,2.76,0,0,0,509,386c-6.36-.07-12.73-.34-19-1-2.71-.29-4.72-.57-7.49-1-2.35-.41-4.7-.91-7-1.51-2-.53-4-1.14-6-1.85-.44-.15-.87-.32-1.31-.49l-.58-.23-.29-.13c-.32-.12.45.2,0,0-.82-.35-1.64-.73-2.45-1.13a36.46,36.46,0,0,1-4.31-2.52l-1-.65-.42-.3c-.58-.43.18.15-.12-.1-.57-.48-1.15-1-1.7-1.45a29.52,29.52,0,0,1-2.89-3.13c-.22-.27-.28-.38,0,0l-.27-.37c-.21-.29-.42-.57-.61-.87-.39-.57-.75-1.15-1.09-1.74s-.66-1.19-1-1.8l-.41-.89c-.07-.17-.13-.33-.21-.48.19.42.15.36,0,0a38.25,38.25,0,0,1-1.33-4c-.37-1.37-.65-2.75-.9-4.15a6.14,6.14,0,0,0-.16-1,2.41,2.41,0,0,0-.08-.48c-.08-.62.07.53,0-.09s-.17-1.47-.24-2.21c-.31-3.41-.39-6.84-.38-10.26,0-7.7-.21-15.27-.76-22.93s-1.22-15.35-1.48-23c-.12-3.86-.15-7.64,0-11.46.07-1.93.17-3.84.32-5.72l.12-1.27a7.9,7.9,0,0,1,.07-.85s.15-.65,0-.31.14-.22.15-.23c.08-.17.15-.34.24-.51.21-.45.43-.9.67-1.34a34.38,34.38,0,0,1,6.16-7.64A97,97,0,0,1,461,259.6a70.51,70.51,0,0,1,8.67-6,58.9,58.9,0,0,1,9.56-4.37,125.7,125.7,0,0,1,21.61-5.92,76,76,0,0,1,21.45-.86,44.77,44.77,0,0,1,19.18,6.33,68.63,68.63,0,0,1,15,13.15,78.67,78.67,0,0,1,10.59,15.18c5.62,10.59,8.5,22.67,6.93,34.6a51.35,51.35,0,0,1-2,8.91C571,323.73,576.2,325.16,577.26,321.85Z"/><path class="e" d="M584.16,288.5c-7.78-26-27.59-46.53-54.1-53.53-24.46-6.46-51.28-1-70.86,15.13-12,9.91-20.22,23.56-24.66,38.4-1.93,6.46,8.15,9.23,10.08,2.78,6.74-22.61,23.8-40.15,46.79-46.22,20.85-5.51,44.38-1.11,61.09,12.77,10.53,8.74,17.67,20.42,21.57,33.46C576,297.73,586.08,295,584.16,288.5Z"/><path class="f" d="M467.74,240.91a77.26,77.26,0,0,0-29.11,30.49,90.31,90.31,0,0,0-4.32,9.51q-1,2.44-1.77,4.93a14,14,0,0,0-1,4.38c.08,5.19,5.63,8.61,10.44,7.18a8,8,0,0,0,5.26-5.49,76.33,76.33,0,0,1,3-8.14,67.53,67.53,0,0,1,9-14.78,62.8,62.8,0,0,1,27.85-19.74,67.86,67.86,0,0,1,38-1.93,62.57,62.57,0,0,1,33,19.79,66.64,66.64,0,0,1,10.4,16.71c1.27,2.89,2,6,3.22,8.88a7.6,7.6,0,0,0,5.61,4.82c4.91.88,10.33-2.68,9.76-8.07-.32-3-1.68-6-2.78-8.76a88.08,88.08,0,0,0-4-8.66,81.23,81.23,0,0,0-23.44-27.19,78.28,78.28,0,0,0-35.63-14.34,85.74,85.74,0,0,0-12-.84c-3.49,0-3.5,5.43,0,5.42a77.72,77.72,0,0,1,21.91,3.07,69.53,69.53,0,0,1,15.72,6.61,74.19,74.19,0,0,1,24.26,22.5A80.63,80.63,0,0,1,579,282q.81,2,1.53,4.11.36,1,.69,2.1c.11.35.22.7.32,1,0,.14.18.86.14.55s0,.4,0,.49c.07.43.15-.4,0,.18-.06.19-.31.78,0,.16a5.45,5.45,0,0,1-.32.57c-.29.51.24-.15-.08.1-.08.06-.58.56-.27.29s-.24.16-.33.21-.7.37-.35.21-.28.08-.38.11a6,6,0,0,0-.65.16c-.2.07.22,0,.25,0h-.28a4.82,4.82,0,0,0-.76,0c-.33,0,.49.15.17,0a.46.46,0,0,1-.28-.06c-.09-.06-.78-.23-.39-.1s-.17-.08-.27-.14l-.32-.2c-.3-.18.32.31.09.06s-.33-.32-.49-.5c.35.4,0,0-.11-.23a1.34,1.34,0,0,0-.15-.29c-.06-.09.15.43.06.12s-.25-.78-.37-1.18c-.49-1.56-1-3.11-1.61-4.63a72.92,72.92,0,0,0-9.35-17.33,67.44,67.44,0,0,0-31.25-23.36A73.85,73.85,0,0,0,496,241.33a68.75,68.75,0,0,0-32,15.11,71,71,0,0,0-19.94,28.23c-.53,1.36-1,2.73-1.48,4.13-.22.64-.41,1.28-.6,1.93s.1,0-.13.3-.55.76-.16.32c-.13.15-.29.29-.4.44-.26.31.34-.18-.15.1l-.59.32c.53-.26,0-.06-.24,0s-.44,0,0,0h-.66c-.31,0-.66-.09-.13,0l-.73-.16c-.24-.07-.35-.12-.54-.19.67.24.06,0-.11-.09a4.61,4.61,0,0,1-.54-.36c.48.35.06,0-.15-.19s.19.36,0,0l-.32-.57c-.15-.26.08.2.09.21s-.08-.24-.11-.36,0-.19-.07-.28c-.07-.29,0,.59,0,0v-.64c0,.64,0-.11.1-.29.22-.82.5-1.64.76-2.44.5-1.56,1.06-3.09,1.65-4.61a74.15,74.15,0,0,1,22-30.66,72.86,72.86,0,0,1,8.89-6.1c3-1.77.28-6.46-2.73-4.68Z"/><path class="f" d="M497.14,230.59a81.92,81.92,0,0,0-17.67,4.66,2.78,2.78,0,0,0-1.93,3.33,2.74,2.74,0,0,0,3.32,1.92,81.62,81.62,0,0,1,17.67-4.66c1.44-.22,2.24-2,1.92-3.34a2.77,2.77,0,0,0-3.33-1.92Z"/><g class="j"><path class="e" d="M459.2,255.86c19.58-16.11,46.4-21.59,70.86-15.13,26,6.85,45.48,26.63,53.59,51.91a4.79,4.79,0,0,0,.51-4.1c-7.78-26-27.59-46.53-54.1-53.53-24.46-6.46-51.28-1-70.86,15.13-12,9.91-20.22,23.56-24.66,38.4a4.65,4.65,0,0,0,.51,4.1C439.58,278.5,447.6,265.4,459.2,255.86Z"/></g><path class="e" d="M445.54,290.27c-2.48-1.86-5.55-1.92-8.89-1.92a14.89,14.89,0,0,0-14.79,14.84v33.06a14.8,14.8,0,0,0,23.73,11.84Z"/><path class="f" d="M446.91,287.93a13.91,13.91,0,0,0-7.38-2.25,23.29,23.29,0,0,0-7.3.5,17.63,17.63,0,0,0-13.13,17.25v4.39c0,9.44-.06,18.87,0,28.31.06,8.33,6.1,16,14.44,17.34a18,18,0,0,0,7.77-.34c2.3-.65,6.79-2.26,7-5.08V290.27c0-3.48-5.42-3.49-5.42,0v57.78l1.35-2.34a13,13,0,0,1-6.06,2.56,11.49,11.49,0,0,1-6-.79,9.33,9.33,0,0,1-1-.44q-.63-.33-1.23-.72a10.61,10.61,0,0,1-2.09-1.75,12.8,12.8,0,0,1-2.66-4.27,14.54,14.54,0,0,1-.71-5.28V305.36a35.15,35.15,0,0,1,.08-3.7c.1-1-.11.46.08-.47,0-.28.11-.57.18-.85a16.32,16.32,0,0,1,.52-1.68c.33-.87-.1.2.12-.28.14-.31.29-.6.46-.9a15,15,0,0,1,.82-1.34A12.2,12.2,0,0,1,436.94,291c2.65,0,5,0,7.16,1.58a2.71,2.71,0,0,0,3.7-1h0A2.78,2.78,0,0,0,446.91,287.93Z"/><path class="e" d="M574.45,291.32a14.67,14.67,0,0,1,8.88-3,14.87,14.87,0,0,1,14.84,14.84v33.08a14.9,14.9,0,0,1-14.84,14.84c-3.33,0-6.41-.53-8.88-2.4Z"/><path class="f" d="M575.86,293.66a12.8,12.8,0,0,1,6-2.55,11.64,11.64,0,0,1,6,.78c.32.13.65.28,1,.44a12.83,12.83,0,0,1,1.23.73,9.72,9.72,0,0,1,2.09,1.75,12.64,12.64,0,0,1,2.66,4.27,14.49,14.49,0,0,1,.71,5.27V334a32.77,32.77,0,0,1-.08,3.71c-.1,1,.11-.46-.07.45a3.88,3.88,0,0,1-.19.87,14.61,14.61,0,0,1-.52,1.67c-.32.86.11-.21-.12.28-.14.31-.29.61-.44.91-.26.46-.54.89-.83,1.34a12.39,12.39,0,0,1-4.44,3.85,12.2,12.2,0,0,1-5.78,1.29,11.69,11.69,0,0,1-7.14-2l1.33,2.34v-57.4c0-3.49-5.42-3.49-5.42,0v57a3.27,3.27,0,0,0,.38,1.76c.65,1.11,2.17,1.8,3.32,2.3a16,16,0,0,0,4,1.14c4.72.7,9.63.11,13.6-2.61a17.82,17.82,0,0,0,7.44-10.66c.85-3.75.46-7.91.46-11.73V311.21c0-3.79.36-7.85-.37-11.56-1.82-9.34-11.23-15.3-20.44-13.68a16.86,16.86,0,0,0-7,3,2.78,2.78,0,0,0-1,3.71A2.72,2.72,0,0,0,575.86,293.66Z"/><path class="f" d="M444.61,351a65.67,65.67,0,0,0,35.76,10.13c3.49,0,3.5-5.43,0-5.42a60.26,60.26,0,0,1-33-9.39,2.71,2.71,0,0,0-2.73,4.68Z"/><circle class="f" cx="481.98" cy="358.39" r="4.87"/><path class="f" d="M482,363.8a5.42,5.42,0,1,1,5.44-5.4,5.42,5.42,0,0,1-5.44,5.4Zm0-9.76a4.35,4.35,0,1,0,4.34,4.36h0a4.35,4.35,0,0,0-4.34-4.35Z"/><g class="j"><rect class="i" x="431.96" y="298.87" width="4.68" height="42.57" rx="0.25" ry="0.25"/><path class="i" d="M436.15,342h-3.71a1,1,0,0,1-1-1V299.35a1,1,0,0,1,1-1h3.72a1,1,0,0,1,1,1V341a1,1,0,0,1-1,1Zm-3.66-1.09h3.6V299.41h-3.56Z"/></g><g class="j"><rect class="i" x="583.97" y="298.87" width="4.68" height="42.57" rx="0.25" ry="0.25"/><path class="i" d="M588.16,342h-3.7a1,1,0,0,1-1-1V299.35a1,1,0,0,1,1-1h3.71a1,1,0,0,1,1,1h0V341a1,1,0,0,1-1,1Zm-3.65-1.09h3.6V299.41h-3.6Z"/></g><path class="k" d="M562.06,414.55H460.46c-7,0-12.26,5-11.77,11.24l3.85,49.11c.49,6.17,6.57,11.24,13.53,11.24h90.34c7,0,13-5.07,13.54-11.24l3.85-49.11C574.32,419.6,569,414.55,562.06,414.55Z"/><path class="i" d="M562.06,411.84H461.63a17.82,17.82,0,0,0-9,2,13,13,0,0,0-6.64,12c.32,4.72.74,9.43,1.1,14.15q1,11.68,1.84,23.37l.67,8.5a43.22,43.22,0,0,0,.48,4.82c1.14,6,6.65,10.59,12.45,11.73a30.42,30.42,0,0,0,6.18.37h87.2a17.72,17.72,0,0,0,11.84-4.29,14.76,14.76,0,0,0,5-10.23L574,458.14l1.81-23,.59-7.57a15.22,15.22,0,0,0-.54-6.74c-2.13-5.78-7.82-9-13.8-9.06-3.49,0-3.49,5.39,0,5.42a10.13,10.13,0,0,1,6.35,2.14,11.26,11.26,0,0,1,1.24,1.25c-.24-.28.23.33.29.43a6.55,6.55,0,0,1,.47.81,8.88,8.88,0,0,1,.74,2.77,37.12,37.12,0,0,1-.26,4.09q-.76,9.74-1.52,19.43l-1.67,21.18-.41,5.18v.31a1.41,1.41,0,0,1,0,.29c0-.42-.09.42-.12.54-.08.32-.16.64-.27,1a1.2,1.2,0,0,1-.14.4c-.17.43.14-.29-.06.13a10.18,10.18,0,0,1-5,5,12.14,12.14,0,0,1-5.3,1.21h-88a18.43,18.43,0,0,1-5.78-.52,11.39,11.39,0,0,1-3.31-1.6A13.35,13.35,0,0,1,457,479a8.79,8.79,0,0,1-1.69-4v-.22c-.11-1.44-.22-2.89-.34-4.32l-1.61-20.68-1.56-20.1c-.1-1.27-.22-2.55-.3-3.85V424.2c0,.11.09-.53.14-.71s.17-.6.26-.9a1.14,1.14,0,0,1,.14-.39c-.16.4,0,0,0-.07a10.82,10.82,0,0,1,1-1.6c-.23.3.19-.2.26-.28.22-.23.44-.45.68-.66a5.35,5.35,0,0,1,1.22-.9,8.81,8.81,0,0,1,3.42-1.27,28,28,0,0,1,4.39-.16h99.1C565.55,417.26,565.55,411.84,562.06,411.84Z"/><g class="l"><path class="e" d="M573.86,425.5c.3-6-4.93-11-11.77-11H460.46c-6.85,0-12.08,4.9-11.78,11Z"/></g><g class="m"><path class="i" d="M452.33,471.89l.24,3c.48,6.17,6.57,11.24,13.53,11.24h90.34c7,0,13-5.07,13.54-11.24l.23-3Z"/><path class="i" d="M449.63,471.89c.24,3.13.42,6.12,2,8.91a16.61,16.61,0,0,0,10,7.45,27.81,27.81,0,0,0,7.28.58h87.5c8-.06,15.54-5.77,16.28-14,.08-1,.15-1.92.23-3a2.75,2.75,0,0,0-2.69-2.75H466.86c-4.76,0-9.55-.13-14.32,0h-.21c-3.48,0-3.49,5.42,0,5.42h113.1c1.52,0,3.06.09,4.57,0h.24l-2.7-2.71c-.08,1-.17,1.92-.24,3,0,.65.07-.11,0,.46-.1.41-.2.81-.32,1.23l-.24.66c.14-.34,0,.09-.07.13a12.26,12.26,0,0,1-.78,1.36,11.56,11.56,0,0,1-8.41,4.7c-1.46.1-2.94,0-4.42,0H466.24a12,12,0,0,1-6.17-1.64,8.64,8.64,0,0,1-1.82-1.34c-.32-.3-.62-.62-1-1a4.79,4.79,0,0,1-.7-1c-.23-.35-.43-.73-.64-1.1a3.29,3.29,0,0,1-.32-.78,11.05,11.05,0,0,1-.36-1.37c0-.06-.08-.53,0-.13v-.35c-.07-1-.15-1.93-.22-2.89a2.79,2.79,0,0,0-2.72-2.71,2.73,2.73,0,0,0-2.69,2.76Z"/></g><circle class="n" cx="511.28" cy="450.33" r="10.61"/><path class="f" d="M518.65,447.6l.21.68h0l-.25-.67Z"/><path class="f" d="M522.86,454.5A12.32,12.32,0,1,0,499.4,447a4.16,4.16,0,0,1,3.17.33l.29.19a9,9,0,0,1,5.3-5.47,8.9,8.9,0,0,1,10,2.77,6.55,6.55,0,0,1,.66.94,12,12,0,0,1,.67,1.29.36.36,0,0,1,0,.09l-.34.15.34-.06a1.62,1.62,0,0,1,0,.19c.09.26.17.54.25.81a6.14,6.14,0,0,1,.24,1.37,8.59,8.59,0,0,1-1.31,5.49,7.56,7.56,0,0,1-1.63,2l-.09.09c-.16.14-.33.29-.5.42h-.07a10.3,10.3,0,0,1-1.7,1,9.47,9.47,0,0,1-5.06.62,8,8,0,0,1-3-1.07l-.07.08-.69-.71a1.63,1.63,0,0,1-.23-.22,11.8,11.8,0,0,1-1.27-1.28,2.1,2.1,0,0,1-.31-.41,5.87,5.87,0,0,1-.43-.67,7.59,7.59,0,0,1-.37-.68,2.57,2.57,0,0,0-.21-.46h0c-.06-.15-.12-.3-.17-.45a4,4,0,0,1-2.2.64h0a3.92,3.92,0,0,1-1.13-.17,12.54,12.54,0,0,0,7.67,8.16A12.32,12.32,0,0,0,522.86,454.5Z"/><path class="f" d="M501.59,449a2,2,0,0,0-2,0,1.4,1.4,0,0,0-.69,1.24v.15a1.55,1.55,0,0,0,1.54,1.56h.14a1.63,1.63,0,0,0,1.73-1.26v-.34A1.45,1.45,0,0,0,501.59,449Z"/><path class="f" d="M518.64,447.5h0v.13h0Z"/><path class="f" d="M567.08,476h.07l.13-.84h0a2.17,2.17,0,0,1-.1.51Z"/><path class="f" d="M453.6,419.91v-.06l-.56.67h0l.24-.28A2.45,2.45,0,0,1,453.6,419.91Z"/><path class="f" d="M447,425.85c.21,3,.46,6,.71,9.07.13,1.68.27,3.37.4,5,.64,7.79,1.26,15.66,1.84,23.38l.66,8.5a46.09,46.09,0,0,0,.48,4.74c1,5.17,5.9,9.77,11.65,10.9a30.26,30.26,0,0,0,6,.35h87.24a16.81,16.81,0,0,0,11.18-4,13.84,13.84,0,0,0,4.62-9.52c.42-5.4.84-10.77,1.26-16.15l2.4-30.58a14.33,14.33,0,0,0-.5-6.36,12.93,12.93,0,0,0-9.44-8,4.2,4.2,0,0,1,.22,1.32,3.88,3.88,0,0,1-.58,2.08,11.25,11.25,0,0,1,3.93,2,12,12,0,0,1,1.38,1.39h0l-.19.16.2-.13.21.28.12.18a8.93,8.93,0,0,1,.55.92,9.89,9.89,0,0,1,.83,3.13v.11a36.86,36.86,0,0,1-.27,4.2l-3.59,45.75v.23a.86.86,0,0,1,0,.17,1.85,1.85,0,0,1,0,.23h0a2.35,2.35,0,0,0-.06.29,1.29,1.29,0,0,1-.07.35c0,.05-.09.37-.15.56H568l-.41,1a1.87,1.87,0,0,1-.1.2,11.28,11.28,0,0,1-5.43,5.39,13.23,13.23,0,0,1-5.72,1.3h-88a19.53,19.53,0,0,1-6-.55,12.21,12.21,0,0,1-3.65-1.76,14.45,14.45,0,0,1-2.56-2.44,10.1,10.1,0,0,1-1.9-4.49h0v-.26c-.1-1.44-.22-2.9-.33-4.32l-3.3-42.25c-.06-.79-.13-1.59-.18-2.4v-1.69h.89l-.86-.22v-.21a2,2,0,0,1,.11-.52c0-.1.14-.54.24-.85a1.55,1.55,0,0,1,.16-.49h0v0h0a1.8,1.8,0,0,1,.11-.2,11.44,11.44,0,0,1,1-1.65l.06-.07h0l.21-.24.07-.09c.28-.28.52-.53.78-.76a6.22,6.22,0,0,1,1.41-1,9.57,9.57,0,0,1,3.75-1.38,28.11,28.11,0,0,1,4.58-.16h95.89a4,4,0,0,1,0-3.42H460.94a16.77,16.77,0,0,0-7.81,1.92A12,12,0,0,0,447,425.85Z"/><path class="f" d="M569.64,420.65l.3.41a3.37,3.37,0,0,1,.19.32h.06l-.54-.71Z"/><path class="f" d="M560.44,414.5a1.59,1.59,0,0,0,1.44,1.72h.47a1.72,1.72,0,0,0-.29-3.4h-.3A1.58,1.58,0,0,0,560.44,414.5Z"/><path class="f" d="M556.93,304.35a44,44,0,0,1-3.29-4.59c-.63-.4-1.25-.77-1.93-1.16a33.14,33.14,0,0,1-4.16-2.83l-.33-.28H472.1l-.06.06a28.76,28.76,0,0,1-4.4,3.36c-1.31.85-2.64,1.63-4,2.45-.67.4-1.32.83-1.93,1.26-.31.21-.62.42-.9.64l-.39.25-.5.4-1.42,1.17a20.43,20.43,0,0,1-.09,2.34c-.13,1.48-.31,3-.32,4.45a1.75,1.75,0,0,1-.8,1.48V321l.21,1.21a80.62,80.62,0,0,0,4.09,13.08c.13.35.26.71.4,1,.34.34.66.7,1,1a10,10,0,0,0,.79.8l.35.33a3,3,0,0,1,.32.3c.56.45,1.17.87,1.77,1.28a45.74,45.74,0,0,0,4,2.47c.66.35,1.32.7,2,1l.75.34h74.64c.19-.2.38-.4.55-.61l.36-.45a3.17,3.17,0,0,0,.21-.27h0c1-1.25,2-2.4,3-3.59,1.22-1.38,2.43-2.78,3.63-4.18s2.21-2.53,3.25-3.85a8.85,8.85,0,0,1,2.61-2.49V309.09l-.17-.14A58.63,58.63,0,0,1,556.93,304.35Z"/><path class="i" d="M539.8,344.44H478.86a22.07,22.07,0,0,1-22-22V317a22.08,22.08,0,0,1,22-22h60.93a22.07,22.07,0,0,1,22,22v5.4A22.06,22.06,0,0,1,539.8,344.44ZM478.86,296a21,21,0,0,0-21,21v5.4a21,21,0,0,0,21,20.95h60.93a21,21,0,0,0,21-21V317a21,21,0,0,0-21-21h0Z"/><circle class="f" cx="478.01" cy="319.78" r="7.96"/><path class="e" d="M478,329.15a9.38,9.38,0,1,1,9.41-9.37,9.38,9.38,0,0,1-9.41,9.37Zm0-15.93a6.56,6.56,0,1,0,6.52,6.6h0A6.56,6.56,0,0,0,478,313.22Z"/><circle class="f" cx="540.67" cy="319.78" r="7.96"/><path class="e" d="M540.67,329.15a9.38,9.38,0,1,1,9.35-9.41h0a9.38,9.38,0,0,1-9.35,9.41Zm0-15.93a6.56,6.56,0,1,0,6.56,6.56h0A6.58,6.58,0,0,0,540.67,313.22Z"/><path class="e" d="M498.08,325.65a11.26,11.26,0,0,0,22.51,0Z"/><path class="e" d="M497.54,325.65a11.8,11.8,0,0,0,23.59,0,.54.54,0,0,0-.54-.53H498.08a.54.54,0,0,0-.47.6h0a.55.55,0,0,0,.47.47h22.51l-.54-.55a10.72,10.72,0,0,1-21.43,0,.54.54,0,0,0-.54-.53A.55.55,0,0,0,497.54,325.65Z"/><g class="j"><path class="e" d="M470.86,298l15.8,45.88h11.92L481.41,295.5A24,24,0,0,0,470.86,298Z"/></g><g class="j"><polygon class="e" points="498.59 295.49 516.33 343.89 534.61 343.89 517.43 295.49 498.59 295.49"/></g><path class="f" d="M454.68,256.11V233.34c0-3.48-5.42-3.48-5.42,0v22.77C449.26,259.59,454.68,259.6,454.68,256.11Z"/><circle class="e" cx="451.93" cy="228.77" r="8.99"/><path class="f" d="M445.64,228.77a5.06,5.06,0,0,1,.29-1.93,6.29,6.29,0,0,1,1-1.92c-.19.27.42-.48.48-.54a7.4,7.4,0,0,1,.83-.76c-.27.21.55-.33.63-.37q.38-.21.78-.39a6.52,6.52,0,0,1,1.86-.41,5.19,5.19,0,0,1,2.21.24,6.11,6.11,0,0,1,3.14,2.11c.37.42.16.21.1.12.11.15.21.31.31.47a7.51,7.51,0,0,1,.53,1c-.14-.33,0,.13,0,.15.06.19.13.37.18.56a5.23,5.23,0,0,1,.19,1v1.21c0,.05-.06.53,0,.16a1.51,1.51,0,0,1-.12.58,7.08,7.08,0,0,1-.33,1.11c0-.12.18-.37-.07.13a5.49,5.49,0,0,1-.34.63,5,5,0,0,1-1.16,1.43,5.74,5.74,0,0,1-1.65,1.1c-.51.24-.25.11-.14.07l-.55.18a7.43,7.43,0,0,1-1.13.27c.37-.06-.13,0-.17,0h-1.35l-.29-.06a6.13,6.13,0,0,1-3.85-2.27,6.52,6.52,0,0,1-1.36-3.93c-.06-3.49-5.48-3.5-5.42,0a11.9,11.9,0,0,0,7.82,11,11.74,11.74,0,1,0-7.8-11C440.16,232.24,445.58,232.24,445.64,228.77Z"/><g class="o"><circle class="k" cx="450.28" cy="227.14" r="3.79"/></g><path class="f" d="M569.46,256.11V233.34c0-3.48-5.42-3.48-5.42,0v22.77C564,259.59,569.46,259.6,569.46,256.11Z"/><circle class="e" cx="566.75" cy="228.77" r="8.99"/><path class="f" d="M560.46,228.77a4.88,4.88,0,0,1,.3-1.93,6,6,0,0,1,1-1.92c-.2.27.41-.48.47-.54a6.7,6.7,0,0,1,.84-.76c-.28.21.55-.33.62-.37.33-.19.76-.38.78-.39a6.53,6.53,0,0,1,1.85-.41,5.06,5.06,0,0,1,2.22.24,6.18,6.18,0,0,1,3.17,2.11c.35.42.15.21.09.12l.31.47a7.5,7.5,0,0,1,.53,1c-.13-.33,0,.13,0,.15.06.19.12.37.16.56a4.49,4.49,0,0,1,.2,1v1.21c0,.05-.06.53,0,.16a1.51,1.51,0,0,1-.12.58,7.78,7.78,0,0,1-.33,1.11c0-.12.18-.37-.06.13-.11.22-.22.42-.35.63a5,5,0,0,1-1.16,1.43,5.74,5.74,0,0,1-1.65,1.1l-.15.07-.54.18a7.43,7.43,0,0,1-1.13.27c.36-.06-.13,0-.17,0H566l-.29-.06a6.06,6.06,0,0,1-3.85-2.27,6.6,6.6,0,0,1-1.37-3.93c-.06-3.49-5.48-3.5-5.42,0a11.91,11.91,0,0,0,7.82,11,11.71,11.71,0,1,0-7.82-11C555,232.24,560.4,232.24,560.46,228.77Z"/><g class="o"><circle class="k" cx="565.1" cy="227.14" r="3.79"/></g><path class="f" d="M539.8,341.19H479.41a24.36,24.36,0,0,1-3.19-.17,18.88,18.88,0,0,1-16.14-18.29v-5.41a18.75,18.75,0,0,1,14.45-18.59,17.48,17.48,0,0,1,4.61-.5h59.13a21.28,21.28,0,0,1,8.76,1.43l.68.31,1,.52c.7.4,1.39.83,2.06,1.29l.46.34c-.28-.2.1.08.13.1.29.24.58.49.86.75a18.2,18.2,0,0,1,1.8,1.82,18.79,18.79,0,0,1,4,7.62,15.94,15.94,0,0,1,.57,4.45v6.32a6.31,6.31,0,0,1-.08,1.2,1.71,1.71,0,0,1-.07.6c-.06.19,0,.2,0,0v.29a18.83,18.83,0,0,1-3.6,8.46s-.21.28-.46.57-.5.58-.76.85a23,23,0,0,1-1.74,1.68,12.44,12.44,0,0,1-1.5,1.12,18.56,18.56,0,0,1-2.1,1.23,19,19,0,0,1-8.42,2c-3.49,0-3.5,5.44,0,5.42a24.36,24.36,0,0,0,23.44-18.17,31.3,31.3,0,0,0,.77-8,47.74,47.74,0,0,0-.35-7.46,23.42,23.42,0,0,0-3.78-9.46,24.63,24.63,0,0,0-18-10.6c-1.93-.18-3.8-.1-5.67-.1H479.14a24.67,24.67,0,0,0-15.41,5.4,24.3,24.3,0,0,0-9,18.48c-.08,5-.18,10,1.74,14.65a24.61,24.61,0,0,0,15,14.08,29.39,29.39,0,0,0,9.37,1.19h59C543.28,346.61,543.28,341.19,539.8,341.19Z"/><path class="p" d="M614.76,492.74h0a27,27,0,0,1-26.83-26.83V402a27,27,0,0,1,26.83-26.83h0A27,27,0,0,1,641.59,402v63.87A27,27,0,0,1,614.76,492.74Z"/><path class="q" d="M600.71,473.58V409.7a26.9,26.9,0,0,1,26.83-26.82,26.11,26.11,0,0,1,6.81.91A26.77,26.77,0,0,0,587.93,402v63.87a27,27,0,0,0,20,25.92A26.72,26.72,0,0,1,600.71,473.58Z"/><path class="r" d="M614.76,492.74h0a27,27,0,0,1-26.83-26.83V402a27,27,0,0,1,26.83-26.83h0A27,27,0,0,1,641.59,402v63.87A27,27,0,0,1,614.76,492.74Z"/><path class="f" d="M614.76,545.12a2.56,2.56,0,0,1-2.55-2.56V468.5a2.55,2.55,0,1,1,5.1,0v74.11a2.54,2.54,0,0,1-2.52,2.56h0Z"/><path class="q" d="M633.29,449.3h0a3.2,3.2,0,0,1-3.2-3.18V427a3.2,3.2,0,0,1,3.2-3.2h0a3.21,3.21,0,0,1,3.19,3.2v19.17A3.2,3.2,0,0,1,633.29,449.3Z"/><path class="s" d="M648.4,546a37.25,37.25,0,0,0,1.65-11c0-14.55-8-26.34-17.83-26.34S614.38,520.48,614.38,535A37.25,37.25,0,0,0,616,546Z"/><path class="s" d="M629.25,543.5a23.69,23.69,0,0,0-36-13.38,21.4,21.4,0,0,0-39,1.09,18.18,18.18,0,0,0-11.56,1.21,20.22,20.22,0,0,0-26.59,10.53h0c-.08.18-.15.37-.23.55Z"/><circle class="t" cx="223.73" cy="427.35" r="44.25"/><path class="u" d="M193.38,431.13a44.3,44.3,0,0,1,44.3-44.25c1.51,0,3,.08,4.52.23a44.3,44.3,0,1,0-22.95,84.26A44.3,44.3,0,0,1,193.38,431.13Z"/><path class="f" d="M220.58,544.93a3.14,3.14,0,0,0,3.14,3.14h0a3.15,3.15,0,0,0,3.14-3.14V428.61a3.14,3.14,0,0,0-3-3h-.15a3.14,3.14,0,0,0-3.14,3Z"/><path class="f" d="M208.57,445l13,13a3.07,3.07,0,0,0,2.19.92h.07a3.12,3.12,0,0,0,2.19-.91,3.16,3.16,0,0,0,0-4.45l-13.1-13.1a3,3,0,0,0-2.23-.87,3.1,3.1,0,0,0-2.21,1A3.14,3.14,0,0,0,208.57,445Z"/><circle class="r" cx="223.73" cy="427.35" r="44.25"/><path class="f" d="M695.19,544.24H55.61c-1.58,0-2.91.83-2.91,1.82s1.3,1.81,2.91,1.81H695.19c1.58,0,2.91-.83,2.91-1.81S696.79,544.24,695.19,544.24Z"/><path class="f" d="M101.35,565a2.17,2.17,0,1,0,0-4.34H78.55a2.17,2.17,0,1,0,0,4.34Z"/><path class="f" d="M265.12,565a2.17,2.17,0,1,0,0-4.34H117.86a2.17,2.17,0,1,0,0,4.34Z"/><path class="f" d="M636.86,560.61H460.48a2.17,2.17,0,1,0,0,4.34H636.86a2.17,2.17,0,1,0,0-4.34Z"/><path class="f" d="M446.34,560.61h-2.43a2.17,2.17,0,1,0,0,4.34h2.43a2.17,2.17,0,1,0,0-4.34Z"/><path class="f" d="M325.72,575.72H251.28a2.17,2.17,0,0,0,0,4.34h74.44a2.17,2.17,0,0,0,0-4.34Z"/><path class="f" d="M355,580.06a2.17,2.17,0,0,0,0-4.34H340.15a2.17,2.17,0,0,0,0,4.34Z"/><path class="e" d="M191.37,193.94V143.78A17.82,17.82,0,0,1,209.18,126H372.66a17.82,17.82,0,0,1,17.81,17.8v7.48H405.7c3.6,0,5.78,1.05,6.6,3.13,1.49,4-3.58,8.84-5.18,10.24-4.07,3.58-14.11,12.28-16.65,14.45v14.85a17.82,17.82,0,0,1-17.81,17.8H209.18A17.83,17.83,0,0,1,191.37,193.94Z"/><path class="f" d="M198.42,118.82a1.73,1.73,0,0,1-1.61-1.83l.42-6.45a1.73,1.73,0,0,1,3.45.09.57.57,0,0,1,0,.13l-.42,6.45a1.72,1.72,0,0,1-1.82,1.61Z"/><path class="f" d="M180.55,131.5a1.76,1.76,0,0,1-.88-1.28,1.72,1.72,0,0,1,1.48-1.93l6.42-.86a1.72,1.72,0,0,1,.44,3.42l-6.4.85A1.69,1.69,0,0,1,180.55,131.5Z"/><path class="f" d="M191,123a1.74,1.74,0,0,1-1-.59l-4.13-5a1.72,1.72,0,1,1,2.59-2.27l.06.07,4.13,5a1.73,1.73,0,0,1-.21,2.43A1.76,1.76,0,0,1,191,123Z"/><path class="f" d="M191.37,193.94V143.78A17.82,17.82,0,0,1,209.18,126H372.66a17.82,17.82,0,0,1,17.81,17.8v7.48H405.7c3.6,0,5.78,1.05,6.6,3.13,1.49,4-3.58,8.84-5.18,10.24-4.07,3.58-14.11,12.28-16.65,14.45v14.85a17.82,17.82,0,0,1-17.81,17.8H209.18A17.83,17.83,0,0,1,191.37,193.94ZM388.78,154.7h0a1.71,1.71,0,0,1-1.72-1.7h0v-9.22a14.39,14.39,0,0,0-14.36-14.36H209.18a14.39,14.39,0,0,0-14.32,14.36v50.16a14.37,14.37,0,0,0,14.36,14.35H372.66A14.37,14.37,0,0,0,387,193.94V178.32a1.7,1.7,0,0,1,.6-1.3c.12-.11,12.58-10.89,17.23-15,3.41-3,4.53-5.61,4.22-6.44-.15-.41-1.13-.9-3.35-.9H388.78Z"/><path class="f" d="M214.95,150.5h152c2.28,0,2.28-1,2.28-1.69a1.71,1.71,0,0,0-.24-1.05,2.5,2.5,0,0,0-2-.63H215c-2.28,0-2.28,1-2.28,1.68a1.65,1.65,0,0,0,.25,1A2.48,2.48,0,0,0,214.95,150.5Z"/><path class="f" d="M214.95,167.71h152c2.28,0,2.28-1,2.28-1.67A1.75,1.75,0,0,0,369,165a2.5,2.5,0,0,0-2-.63H215c-2.28,0-2.28,1-2.28,1.69a1.65,1.65,0,0,0,.25,1.05A2.51,2.51,0,0,0,214.95,167.71Z"/><path class="f" d="M272.39,184.94H367c2.28,0,2.28-1,2.28-1.67s0-1.69-2.28-1.69H272.39c-2.29,0-2.29,1-2.29,1.69S270.1,184.94,272.39,184.94Z"/><path class="e" d="M181,262.5a16.21,16.21,0,0,0-16.1,16.16v33.23a16.2,16.2,0,0,0,16.19,16.19h184.2a16.2,16.2,0,0,0,16.18-16.19v-2.61a1.91,1.91,0,0,1,1.9-1.92h19.23c2.5,0,3.61-.55,3.78-1,.35-1-1-3.85-4.77-7.27-5.24-4.61-19.26-16.76-19.42-16.88a1.89,1.89,0,0,1-.67-1.47v-2.11A16.21,16.21,0,0,0,365.3,262.5Z"/><path class="f" d="M166.93,253.32a1.92,1.92,0,0,1-1.81-2h0l.47-7.27a1.93,1.93,0,0,1,3.85.25l-.47,7.27a1.91,1.91,0,0,1-2,1.81Z"/><path class="f" d="M148.09,268.33a1.92,1.92,0,0,1-1-2.52h0a1.9,1.9,0,0,1,1.44-1.14l7.12-1.48a1.94,1.94,0,1,1,.79,3.8l-7.14,1.52A1.94,1.94,0,0,1,148.09,268.33Z"/><path class="f" d="M158.58,258a2,2,0,0,1-1.08-.65l-4.66-5.6a1.95,1.95,0,1,1,3-2.48h0l4.66,5.59a1.93,1.93,0,0,1-1.93,3.14Z"/><path class="f" d="M365.25,332H181a20.09,20.09,0,0,1-20.1-20.07V278.66a20.1,20.1,0,0,1,20.07-20.07H365.25a20.1,20.1,0,0,1,20.1,20.07v1.2c2.89,2.49,14.18,12.29,18.77,16.37,1.8,1.58,7.52,7.08,5.78,11.56-.87,2.34-3.38,3.53-7.42,3.53H385.3V312A20.1,20.1,0,0,1,365.25,332ZM181,262.5a16.21,16.21,0,0,0-16.1,16.16v33.23a16.2,16.2,0,0,0,16.19,16.19h184.2a16.2,16.2,0,0,0,16.18-16.19v-2.61a1.91,1.91,0,0,1,1.9-1.92h19.23c2.5,0,3.61-.55,3.78-1,.35-1-1-3.85-4.77-7.27-5.24-4.61-19.26-16.76-19.42-16.88a1.89,1.89,0,0,1-.67-1.47v-2.11A16.21,16.21,0,0,0,365.3,262.5Z"/><path class="f" d="M358.92,282.33H187.51c-2.64,0-2.64,1.18-2.64,2s0,2,2.64,2H358.92c2.64,0,2.64-1.18,2.64-2S361.56,282.33,358.92,282.33Z"/><path class="f" d="M242.35,301.74H187.51c-2.64,0-2.64,1.18-2.64,2s0,2,2.64,2h54.84c2.64,0,2.64-1.18,2.64-2S245,301.74,242.35,301.74Z"/><path class="f" d="M293.11,301.74h-29c-2.64,0-2.64,1.18-2.64,2s0,2,2.64,2h29c2.64,0,2.64-1.18,2.64-2S295.75,301.74,293.11,301.74Z"/><path class="f" d="M476.38,143.65l-.32-.43.11-.51c.58-2.74,1.3-8-.44-12.38l-.11-.33a15.34,15.34,0,0,0-4.41-6.57c-4.19-3.43-9.57-3.5-11.33-3.52h-1.56c-1.76,0-7.13.09-11.32,3.52a14.45,14.45,0,0,0-4.58,7c-1.11,3.81-.38,9.81.15,12.11l.12.55-.35.43a6.6,6.6,0,0,0-1.31,4.6c.23,2.16,2.28,3.79,3.15,4.39l.43.3.42,3.72v.15c1.51,6.81,9.26,11.17,13.92,11.17,5.52,0,12.42-4.45,13.89-11.07l1-3.92.37-.24c1-.6,3.08-2.25,3.33-4.51A6.72,6.72,0,0,0,476.38,143.65Zm-31.14-12.37a11.33,11.33,0,0,1,3.62-5.58c3.41-2.8,7.9-2.89,9.82-2.89h.82c1.92,0,6.39.06,9.8,2.89a11.84,11.84,0,0,1,3.52,5.33l.16.39a15.41,15.41,0,0,1,.88,6.08l-.11,2.89-1.89-2.21a26.6,26.6,0,0,0-4.41-4.27,1.5,1.5,0,0,0-2.08.44l-.05.09c-1.73,3.2-15,6.66-18.9,7.17l-1.11.14-.17-1.1C445.05,140,444.28,134.5,445.24,131.28Zm29.43,16.5v.13A5.23,5.23,0,0,1,472,150.6h0l-.32.23h0l-.22.28a.24.24,0,0,0-.06.09l0,.11-.06.16v.13l-1.17,4.48c-1.11,5-6.85,8.82-11,8.82-3.5,0-9.81-3.74-11-8.67v-.11l-.51-4.39a1,1,0,0,0-.06-.24,1.47,1.47,0,0,0-.73-.87A5.28,5.28,0,0,1,444.1,148v-.12a3.58,3.58,0,0,1,.89-2.71l.1-.07a1.39,1.39,0,0,0,.27-.21l.3-.27h.41a47.42,47.42,0,0,0,9.1-1.93c5.17-1.5,8.9-3.13,11.1-4.81l.8-.61.71.71a51.33,51.33,0,0,1,5.54,6.67l.18.21.08.09.08.07.19.12h0A3.44,3.44,0,0,1,474.67,147.78Z"/><path class="v" d="M446.4,167.85s6.11,4.36,11.34,4.36a22,22,0,0,0,13.1-4.36s14.45,3.05,14.45,19.63c0,0-11.35,10.47-26.19,10.47s-27-9.63-27-9.63S432.86,170,446.4,167.85Z"/><path class="v" d="M656,174.7v3.55a7.13,7.13,0,0,1-7.11,7.11h-37.3l-16.48,15.4a1.77,1.77,0,0,1-2.5.07h0a1.79,1.79,0,0,1-.55-1.29V185.36H581.39a7.12,7.12,0,0,1-7.1-7.11V137.4a7.1,7.1,0,0,1,7.09-7.11h67.48A7.11,7.11,0,0,1,656,137.4h0Z"/><circle class="v" cx="637.34" cy="145.39" r="6.22"/><polyline class="v" points="645.34 176.47 629.35 158.71 622.24 165.82"/><polyline class="v" points="627.58 172.92 608.04 153.38 584.95 176.47"/><path class="v" d="M79.33,317.5V307.42A4.31,4.31,0,0,1,75,303.11h0v-6.47a4.31,4.31,0,0,1,4.31-4.31h0v-8.61A8.67,8.67,0,0,1,88,275.05h40.53a8.67,8.67,0,0,1,8.66,8.67v8.61a4.32,4.32,0,0,1,4.32,4.3h0v6.47a4.31,4.31,0,0,1-4.31,4.31h0V317.5H105.11L89.11,331V317.5Z"/><circle class="v" cx="96.91" cy="296.29" r="4.8"/><circle class="v" cx="119.52" cy="296.32" r="4.8" transform="matrix(0.07, -1, 1, 0.07, -184.53, 394.51)"/><line class="w" x1="108.22" y1="275.24" x2="108.22" y2="268.12"/><circle class="v" cx="108.22" cy="263.98" r="4.13"/><path class="g" d="M325.53,378.06s4.19,9.22,1.68,12.58,9.22-5.88,8.38-10.07S325.53,378.06,325.53,378.06Z"/><path class="g" d="M325.53,460.21s4.19,9.23,1.68,12.58,9.22-5.86,8.38-10.06S325.53,460.21,325.53,460.21Z"/><path class="a" d="M711.41,59.87H655.86a18.65,18.65,0,0,1-.42-37.3,29.13,29.13,0,0,1,53.66-5.69,21.8,21.8,0,0,1,2.28-.14,21.57,21.57,0,0,1,0,43.13Z"/><path class="a" d="M215.41,72.5H159.86a18.65,18.65,0,0,1-.42-37.29,29.13,29.13,0,0,1,53.68-5.71,21.81,21.81,0,0,1,2.29-.12,21.56,21.56,0,0,1,0,43.12Z"/><path class="x" d="M643.48,279.55a11.32,11.32,0,1,1,11.31-11.33h0A11.33,11.33,0,0,1,643.48,279.55Zm0-18.18a6.87,6.87,0,1,0,6.86,6.88h0A6.88,6.88,0,0,0,643.48,261.37Z"/><path class="y" d="M512.86,67h48.38a9.22,9.22,0,0,1,9.22,9.2V103.9a9.21,9.21,0,0,1-9.21,9.21h-26l-16.07,16.63a2.3,2.3,0,0,1-4-1.6v-15h-2.31a9.21,9.21,0,0,1-9.21-9.21h0V76.24A9.21,9.21,0,0,1,512.86,67Z"/><circle class="z" cx="554.25" cy="90.74" r="4.39"/><circle class="aa" cx="537.52" cy="90.74" r="4.39"/><circle class="z" cx="520.79" cy="90.74" r="4.39"/></svg>